<?xml version="1.0" encoding="UTF-8"?>
<svg version="1.1" xmlns="http://www.w3.org/2000/svg" width="200" height="200">
<path d="M0 0 C66 0 132 0 200 0 C200 66 200 132 200 200 C134 200 68 200 0 200 C0 134 0 68 0 0 Z " fill="#3479D6" transform="translate(0,0)"/>
<path d="M0 0 C0.99 0.66 1.98 1.32 3 2 C1.96101563 2.70125 0.92203125 3.4025 -0.1484375 4.125 C-1.5578617 5.08249478 -2.96667452 6.0408899 -4.375 7 C-5.10509277 7.49604736 -5.83518555 7.99209473 -6.58740234 8.50317383 C-11.58848579 11.93540911 -16.2770223 15.57262478 -20.7890625 19.63671875 C-23.65900308 21.40634642 -25.67597677 21.07841732 -29 21 C-33.1752052 22.77427346 -36.73108661 25.56657172 -39.875 28.8125 C-40.57625 29.534375 -41.2775 30.25625 -42 31 C-42.66 31 -43.32 31 -44 31 C-44.66714603 9.47836318 -44.66714603 9.47836318 -39.7109375 3.42578125 C-29.99686114 -5.63895845 -11.81361184 -2.86497772 0 0 Z " fill="#F9FBFD" transform="translate(146,35)"/>
<path d="M0 0 C9.36064215 -0.53773902 18.70900381 0.57697955 26 7 C30.38394105 13.15796121 30.52772082 19.09607867 30.3125 26.4375 C30.30283203 27.42298828 30.29316406 28.40847656 30.28320312 29.42382812 C30.19298791 35.342731 29.74678567 41.12892889 29 47 C24.59392623 42.91096844 21.27630601 38.37829988 17.875 33.4375 C16.83117893 31.93588517 15.78692207 30.43457316 14.7421875 28.93359375 C14.05938721 27.9444397 14.05938721 27.9444397 13.36279297 26.93530273 C12.39448123 25.56020292 11.38275348 24.21523203 10.34301758 22.89331055 C8.67104628 20.53625958 8.76135443 19.22985249 8.8125 16.375 C8.44280434 10.45106719 5.55421652 7.25879225 1.71484375 2.93359375 C0 1 0 1 0 0 Z " fill="#FCFDFE" transform="translate(109,77)"/>
<path d="M0 0 C0.33 0 0.66 0 1 0 C0.61138319 9.870867 -1.25986501 19.74677108 -7 28 C-18.16661011 34.01279006 -33.05649598 33.35256253 -45 30 C-40.83175158 26.5804925 -36.472888 23.53803619 -32.01635742 20.50927734 C-28.63745771 18.19153145 -25.45380052 15.76234857 -22.3125 13.125 C-18.50780272 10.08264096 -14.98427814 8.86304407 -10.30078125 7.67578125 C-5.67849098 6.31813063 -2.68782126 4.03173189 0 0 Z " fill="#FAFCFE" transform="translate(96,82)"/>
<path d="M0 0 C3.78425647 3.55395304 6.33494189 7.84335965 9.125 12.1875 C9.95064453 13.4259668 9.95064453 13.4259668 10.79296875 14.68945312 C13.26690583 18.54624202 15.23810783 21.64277389 15.58203125 26.2734375 C16.08986724 30.80124619 17.39036315 32.25543471 20.5625 35.4375 C25 39.97191888 25 39.97191888 25 41 C19.67857103 41.18756995 15.0358052 40.58562869 9.875 39.3125 C9.18535156 39.16361328 8.49570313 39.01472656 7.78515625 38.86132812 C2.87880666 37.66522951 0.17586089 35.90091592 -3 32 C-6.45872297 21.62383108 -2.51717598 10.21479001 0 0 Z " fill="#F9FBFD" transform="translate(66,28)"/>
<path d="M0 0 C6.01724816 0.4105887 11.99031878 1.19282188 17.9375 2.1875 C19.20464844 2.38730469 20.47179687 2.58710937 21.77734375 2.79296875 C25 4 25 4 27.06640625 6.86328125 C28 10 28 10 27.37890625 12.17578125 C25.9857738 14.01882049 24.63916687 15.62261014 22.9375 17.1875 C22.41027344 17.69667969 21.88304688 18.20585938 21.33984375 18.73046875 C17.76000573 20.67278487 14.01694599 20.7369187 10 21 C8.51361733 18.25384196 7.03718828 15.50245309 5.5625 12.75 C5.14162109 11.97269531 4.72074219 11.19539063 4.28710938 10.39453125 C3.88427734 9.64042969 3.48144531 8.88632813 3.06640625 8.109375 C2.69459229 7.41811523 2.32277832 6.72685547 1.93969727 6.01464844 C1.00925892 4.01985051 0.45699179 2.14807202 0 0 Z " fill="#FBFCFE" transform="translate(68,68)"/>
<path d="M0 0 C8.86074244 8.56678416 8.86074244 8.56678416 9.20703125 13.9453125 C7.31986322 18.96530402 3.24477208 20.23223913 -1.4140625 22.46875 C-2.74147461 23.14357422 -2.74147461 23.14357422 -4.09570312 23.83203125 C-10.60426957 27.09375 -10.60426957 27.09375 -12.9765625 27.09375 C-12.78320312 26.5575 -12.58984375 26.02125 -12.390625 25.46875 C-9.73459501 17.4743627 -8.85564137 9.42948608 -7.9765625 1.09375 C-2.54933926 -1.16886701 -2.54933926 -1.16886701 0 0 Z " fill="#FAFBFD" transform="translate(106.9765625,78.90625)"/>
<path d="M0 0 C1.6735337 2.95449913 3.33763985 5.9142018 5 8.875 C5.47695312 9.71675781 5.95390625 10.55851562 6.4453125 11.42578125 C6.89648438 12.23144531 7.34765625 13.03710938 7.8125 13.8671875 C8.44091797 14.98262939 8.44091797 14.98262939 9.08203125 16.12060547 C10 18 10 18 10 20 C6.2022633 19.47434473 2.41388092 18.89834 -1.375 18.3125 C-2.45523438 18.16361328 -3.53546875 18.01472656 -4.6484375 17.86132812 C-5.6796875 17.69697266 -6.7109375 17.53261719 -7.7734375 17.36328125 C-8.72653809 17.22188721 -9.67963867 17.08049316 -10.66162109 16.93481445 C-13 16 -13 16 -14.33666992 13.546875 C-15.05906613 10.77321387 -15.15768467 9.60075208 -14 7 C-12.44140625 5.33203125 -12.44140625 5.33203125 -10.5625 3.8125 C-9.94503906 3.30332031 -9.32757813 2.79414062 -8.69140625 2.26953125 C-5.67249014 0.00360115 -3.72215266 -0.09795139 0 0 Z " fill="#FBFCFE" transform="translate(121,58)"/>
<path d="M0 0 C0.66 0.33 1.32 0.66 2 1 C1.76228882 1.84933105 1.76228882 1.84933105 1.51977539 2.71582031 C0.99214152 5.0345345 0.795844 7.17358397 0.68359375 9.546875 C0.64169922 10.39121094 0.59980469 11.23554687 0.55664062 12.10546875 C0.51732422 12.97816406 0.47800781 13.85085937 0.4375 14.75 C0.39431641 15.63816406 0.35113281 16.52632812 0.30664062 17.44140625 C0.20086385 19.62745963 0.09877454 21.81362089 0 24 C-2.73828125 25.19140625 -2.73828125 25.19140625 -6 26 C-10.61995622 23.59697548 -15.04452818 18.82349716 -17 14 C-16.71652717 11.45814142 -16.37348104 10.33431581 -14.44946289 8.61206055 C-13.7971167 8.20769775 -13.14477051 7.80333496 -12.47265625 7.38671875 C-11.76302734 6.94392578 -11.05339844 6.50113281 -10.32226562 6.04492188 C-9.57654297 5.59697266 -8.83082031 5.14902344 -8.0625 4.6875 C-7.32064453 4.22021484 -6.57878906 3.75292969 -5.81445312 3.27148438 C-1.72145472 0.75928137 -1.72145472 0.75928137 0 0 Z " fill="#F9FBFD" transform="translate(100,42)"/>
<path d="M0 0 C0 22.77 0 45.54 0 69 C-1.32 69 -2.64 69 -4 69 C-4.06942477 60.29886666 -4.12277271 51.59782824 -4.15543652 42.89647865 C-4.17111131 38.85634219 -4.19238225 34.81639481 -4.22631836 30.77636719 C-4.25884776 26.87954213 -4.27683934 22.98289926 -4.28463173 19.08594894 C-4.29018685 17.59713242 -4.30103436 16.10832618 -4.31719017 14.61958694 C-4.33888007 12.53865034 -4.34197061 10.45847235 -4.34057617 8.37744141 C-4.34723801 7.19163483 -4.35389984 6.00582825 -4.36076355 4.78408813 C-4.24171158 3.86533905 -4.12265961 2.94658997 -4 2 C-1 0 -1 0 0 0 Z " fill="#ECF2FB" transform="translate(104,104)"/>
<path d="M0 0 C2.77720026 0.26449526 4.35722714 0.63016224 6.625 2.25 C7.375 4.375 7.375 4.375 7.625 6.25 C10.265 6.25 12.905 6.25 15.625 6.25 C15.625 6.58 15.625 6.91 15.625 7.25 C12.985 7.25 10.345 7.25 7.625 7.25 C8.140625 7.848125 8.65625 8.44625 9.1875 9.0625 C9.661875 9.784375 10.13625 10.50625 10.625 11.25 C10.295 12.24 9.965 13.23 9.625 14.25 C8.92375 13.734375 8.2225 13.21875 7.5 12.6875 C4.01612465 10.94556233 2.3266431 11.30306805 -1.375 12.25 C-1.33375 13.52875 -1.2925 14.8075 -1.25 16.125 C-1.25 21.35632119 -2.16137169 26.17787064 -3.375 31.25 C-3.53097656 31.94867188 -3.68695313 32.64734375 -3.84765625 33.3671875 C-4.76152262 37.06873029 -5.07680692 38.05120462 -8.375 40.25 C-9.035 39.92 -9.695 39.59 -10.375 39.25 C-10.10945313 38.59515625 -9.84390625 37.9403125 -9.5703125 37.265625 C-6.88429884 30.32512255 -5.35250458 23.61987002 -4.375 16.25 C-5.220625 17.013125 -6.06625 17.77625 -6.9375 18.5625 C-10.92142656 21.88558566 -15.06501194 24.25 -20.375 24.25 C-20.705 23.26 -21.035 22.27 -21.375 21.25 C-20.72273438 21.10304688 -20.07046875 20.95609375 -19.3984375 20.8046875 C-14.24667996 19.48255503 -10.0381243 18.16249397 -6.41796875 14.13671875 C-4.70248481 11.03342758 -4.64165608 7.9160845 -4.578125 4.421875 C-4.27486028 1.17927529 -3.18737657 0.33551332 0 0 Z " fill="#4081D8" transform="translate(100.375,67.75)"/>
<path d="M0 0 C6.6 0.99 13.2 1.98 20 3 C20.33 2.34 20.66 1.68 21 1 C22.32 0.67 23.64 0.34 25 0 C24.34 3.63 23.68 7.26 23 11 C22.34 11 21.68 11 21 11 C20.67 9.35 20.34 7.7 20 6 C19.23816406 5.95101562 18.47632812 5.90203125 17.69140625 5.8515625 C11.27029384 5.38661304 5.24558627 4.56139657 -1 3 C-0.67 2.01 -0.34 1.02 0 0 Z " fill="#4584D9" transform="translate(73,66)"/>
<path d="M0 0 C2.5 0.25 2.5 0.25 4.5 2.25 C4.125 5.875 4.125 5.875 3.5 9.25 C0.625 9.875 0.625 9.875 -2.5 10.25 C-4.5 8.25 -4.5 8.25 -4.75 5.25 C-4.43608753 1.48305032 -3.83691092 0.38369109 0 0 Z " fill="#F7FAFD" transform="translate(100.5,67.75)"/>
<path d="M0 0 C0 0.99 0 1.98 0 3 C-1.010625 3.20625 -2.02125 3.4125 -3.0625 3.625 C-8.52206201 5.15634056 -12.08877706 9.08877706 -16 13 C-16.33 11.68 -16.66 10.36 -17 9 C-15.58680023 7.87064804 -14.16928595 6.74669374 -12.75 5.625 C-11.96109375 4.99851562 -11.1721875 4.37203125 -10.359375 3.7265625 C-6.57194748 0.95496819 -4.79080613 0 0 0 Z " fill="#4785D9" transform="translate(121,55)"/>
<path d="M0 0 C0.33 1.32 0.66 2.64 1 4 C3.64 4 6.28 4 9 4 C9 4.33 9 4.66 9 5 C6.36 5 3.72 5 1 5 C1.515625 5.598125 2.03125 6.19625 2.5625 6.8125 C3.036875 7.534375 3.51125 8.25625 4 9 C3.67 9.99 3.34 10.98 3 12 C1 10.625 1 10.625 -1 9 C-1 8.34 -1 7.68 -1 7 C-1.66 7 -2.32 7 -3 7 C-2.625 4.0625 -2.625 4.0625 -2 1 C-1.34 0.67 -0.68 0.34 0 0 Z " fill="#5A92DD" transform="translate(107,70)"/>
<path d="M0 0 C3.37705625 0.53725895 6.696686 1.11064623 10 2 C7 4 7 4 3 4 C2.67 5.98 2.34 7.96 2 10 C1.896875 9.360625 1.79375 8.72125 1.6875 8.0625 C1.460625 7.381875 1.23375 6.70125 1 6 C0.01 5.67 -0.98 5.34 -2 5 C-1.34 3.35 -0.68 1.7 0 0 Z " fill="#3177D5" transform="translate(96,76)"/>
<path d="M0 0 C0.99 0.99 1.98 1.98 3 3 C1.375 9.75 1.375 9.75 -2 12 C-2.66 11.67 -3.32 11.34 -4 11 C-2.68 7.37 -1.36 3.74 0 0 Z " fill="#4B88DA" transform="translate(94,96)"/>
<path d="M0 0 C3.79379058 1.49041773 5.68343758 3.69062512 8 7 C8 7.66 8 8.32 8 9 C7.01 9 6.02 9 5 9 C2.77051019 6.04920467 1.17140125 3.51420376 0 0 Z " fill="#3F80D7" transform="translate(110,81)"/>
<path d="M0 0 C0.99 0.33 1.98 0.66 3 1 C2.67 3.31 2.34 5.62 2 8 C1.01 8.33 0.02 8.66 -1 9 C-0.67 6.03 -0.34 3.06 0 0 Z " fill="#4886D9" transform="translate(101,41)"/>
<path d="M0 0 C0.99 0 1.98 0 3 0 C1.63016497 3.16115776 1.0109362 3.9927092 -2 6 C-2 2 -2 2 0 0 Z " fill="#518CDB" transform="translate(93,82)"/>
<path d="M0 0 C0.66 1.65 1.32 3.3 2 5 C-0.66666667 3.66666667 -3.33333333 2.33333333 -6 1 C-4 0 -4 0 0 0 Z " fill="#377BD6" transform="translate(105,66)"/>
<path d="M0 0 C0.99 0.33 1.98 0.66 3 1 C4.1875 3.5625 4.1875 3.5625 5 6 C4.01 6 3.02 6 2 6 C0 3 0 3 0 0 Z " fill="#4081D7" transform="translate(81,55)"/>
</svg>
